<!-- Generated by IcoMoon.io -->
<svg version="1.1" xmlns="http://www.w3.org/2000/svg" width="1024" height="1024" viewBox="0 0 1024 1024">
<title></title>
<g id="icomoon-ignore">
</g>
<path d="M15.536 713.049c13.97 21.402 40.034 43.935 88.098 59.635 43.972 14.368 101.92 21.439 168.28 20.604l570.175-152.775c57.888-32.455 104.534-67.557 135.432-101.984 33.77-37.63 45.083-70.176 46.479-95.7l-1008.464 270.222zM706.614 243.605c-33.77-45.886-80.044-80.39-133.831-99.802-55.182-19.916-114.402-22.392-171.26-7.156s-106.906 46.99-144.74 91.828c-36.874 43.704-59.692 96.722-65.998 153.346l-1.552 11.794 524.625-140.572-7.243-9.438zM920.377 325.205c-43.682-14.276-101.16-21.35-166.971-20.62l-572.649 153.444c-57.362 32.274-103.598 67.138-134.29 101.344-33.768 37.624-45.074 70.171-46.466 95.695l1008.468-270.216c-13.97-21.408-40.033-43.944-88.091-59.648zM316.44 843.496l47.624 53.706 450.178-120.622 14.39-70.322-512.191 137.238z"></path>
</svg>
